<svg width="303" height="14" viewBox="0 0 303 14" fill="none" xmlns="http://www.w3.org/2000/svg">
<path d="M13.392 6.256C13.392 2.872 11.112 0.759999 7.512 0.759999C3.336 0.759999 0.36 3.856 0.36 7.744C0.36 11.128 2.64 13.24 6.24 13.24C10.176 13.24 12.744 10.888 13.296 7.48H8.376C8.16 8.224 7.488 8.776 6.648 8.776C5.784 8.776 5.256 8.2 5.256 7.288C5.256 6.16 6 5.224 7.128 5.224C7.824 5.224 8.352 5.608 8.448 6.256H13.392ZM46.7461 13V1H53.0391C54.1641 1 55.0547 1.26953 55.7109 1.80859C56.375 2.33984 56.707 3.11719 56.707 4.14062C56.707 5.28906 56.1953 6.11328 55.1719 6.61328C55.7891 6.83984 56.2695 7.19531 56.6133 7.67969C56.9648 8.15625 57.1406 8.74609 57.1406 9.44922C57.1406 10.6211 56.7891 11.5078 56.0859 12.1094C55.3828 12.7031 54.3828 13 53.0859 13H46.7461ZM49.5117 3.15625V5.78125H52.1953C52.8281 5.78125 53.2773 5.67188 53.543 5.45312C53.8164 5.22656 53.9531 4.90234 53.9531 4.48047C53.9531 4.01953 53.8203 3.68359 53.5547 3.47266C53.2891 3.26172 52.8359 3.15625 52.1953 3.15625H49.5117ZM52.6289 7.9375H49.5117V10.8438H52.6289C53.7148 10.8438 54.2578 10.3477 54.2578 9.35547C54.2578 8.41016 53.7148 7.9375 52.6289 7.9375ZM107.004 6.66016C107.316 6.66016 107.617 6.64844 107.906 6.625C108.203 6.59375 108.43 6.56641 108.586 6.54297C108.742 6.51172 108.906 6.47656 109.078 6.4375C109.25 6.39844 109.344 6.37891 109.359 6.37891V1H111.762V13H109.359V8.53516C108.383 8.76172 107.535 8.875 106.816 8.875C105.027 8.875 103.703 8.46484 102.844 7.64453C101.984 6.82422 101.555 5.51953 101.555 3.73047V1H103.957V3.70703C103.957 4.75391 104.211 5.50781 104.719 5.96875C105.227 6.42969 105.988 6.66016 107.004 6.66016ZM150.75 13L145.008 6.68359V13H142.617V1H145.008V6.33203L150.176 1H153.363L147.727 6.47266L153.797 13H150.75ZM212.027 1V9.97656L216.727 1H220.43V13H217.664V4.04688L212.965 13H209.262V1H212.027ZM287.379 5.78125C287.262 4.89844 286.883 4.21094 286.242 3.71875C285.609 3.21875 284.844 2.96875 283.945 2.96875C282.914 2.96875 282.059 3.34375 281.379 4.09375C280.707 4.83594 280.371 5.80469 280.371 7C280.371 8.19531 280.707 9.16797 281.379 9.91797C282.059 10.6602 282.914 11.0312 283.945 11.0312C284.859 11.0312 285.637 10.7617 286.277 10.2227C286.926 9.68359 287.309 8.92969 287.426 7.96094H289.922C289.828 9.53125 289.219 10.8047 288.094 11.7812C286.977 12.75 285.594 13.2344 283.945 13.2344C282.219 13.2344 280.789 12.6523 279.656 11.4883C278.531 10.3164 277.969 8.82031 277.969 7C277.969 5.17969 278.531 3.6875 279.656 2.52344C280.789 1.35156 282.219 0.765625 283.945 0.765625C285.539 0.765625 286.887 1.23047 287.988 2.16016C289.098 3.08203 289.727 4.28906 289.875 5.78125H287.379Z" fill="#AD3D27"/>
<path d="M17.8125 1V10.5742L23.3086 1H26.3555V13H24.0586V3.42578L18.5625 13H15.5156V1H17.8125ZM41.6602 13V1.91406L37.3125 13H35.6836L31.4414 1.9375V13H30.0938V1H32.4961L36.5742 11.9219L40.6992 1H43.1016V13H41.6602ZM59.1251 7.864C59.1251 11.128 61.2611 13.24 64.8131 13.24C68.9651 13.24 71.7251 9.952 71.7251 6.136C71.7251 2.872 69.5891 0.759999 66.0371 0.759999C61.8851 0.759999 59.1251 4.048 59.1251 7.864ZM62.5811 7.72C62.5811 5.728 63.8771 3.832 65.9171 3.832C67.3571 3.832 68.2691 4.768 68.2691 6.28C68.2691 8.272 66.9731 10.168 64.9571 10.168C63.4931 10.168 62.5811 9.232 62.5811 7.72ZM74.9883 9.78906C75.332 8.29688 75.5234 5.36719 75.5625 1H83.918V13H82.4766V2.32422H76.8633C76.793 5.72266 76.6328 8.16797 76.3828 9.66016C76.1641 10.9258 75.8125 11.8008 75.3281 12.2852C74.8516 12.7617 74.2031 13 73.3828 13H72.9727V11.6758H73.2656C74.1641 11.6758 74.7383 11.0469 74.9883 9.78906ZM90.3398 1V9.97656L95.0391 1H98.7422V13H95.9766V4.04688L91.2773 13H87.5742V1H90.3398ZM126.396 6.136C126.396 2.872 124.356 0.759999 120.9 0.759999C116.868 0.759999 114.18 4.048 114.18 7.864C114.18 11.128 116.244 13.24 119.7 13.24C122.676 13.24 124.908 11.632 125.796 9.16H122.124C121.644 10 120.804 10.432 119.844 10.432C118.428 10.432 117.612 9.52 117.588 7.888H126.204C126.324 7.312 126.396 6.712 126.396 6.136ZM120.78 3.592C122.196 3.592 122.94 4.456 122.988 5.992H117.852C118.332 4.528 119.388 3.592 120.78 3.592ZM138.281 5.78125C138.125 4.64844 137.645 3.75 136.84 3.08594C136.035 2.41406 135.078 2.07812 133.969 2.07812C132.68 2.07812 131.617 2.53516 130.781 3.44922C129.945 4.35547 129.527 5.53906 129.527 7C129.527 8.46094 129.945 9.64844 130.781 10.5625C131.617 11.4688 132.68 11.9219 133.969 11.9219C135.125 11.9219 136.105 11.5664 136.91 10.8555C137.723 10.1367 138.195 9.17188 138.328 7.96094H139.816C139.699 9.51562 139.09 10.7852 137.988 11.7695C136.895 12.7461 135.555 13.2344 133.969 13.2344C132.273 13.2344 130.867 12.6523 129.75 11.4883C128.641 10.3164 128.086 8.82031 128.086 7C128.086 5.17969 128.641 3.6875 129.75 2.52344C130.867 1.35156 132.273 0.765625 133.969 0.765625C135.5 0.765625 136.805 1.23047 137.883 2.16016C138.969 3.08203 139.598 4.28906 139.77 5.78125H138.281ZM162.91 13H166.198L168.742 1H165.094L164.662 3.016C163.99 1.576 162.646 0.759999 160.966 0.759999C157.222 0.759999 154.774 4.12 154.774 7.984C154.774 11.128 156.646 13.24 159.574 13.24C161.062 13.24 162.31 12.52 163.246 11.368L162.91 13ZM163.87 6.256C163.87 8.272 162.574 10.168 160.582 10.168C159.166 10.168 158.278 9.232 158.278 7.744C158.278 5.728 159.55 3.832 161.542 3.832C162.982 3.832 163.87 4.768 163.87 6.256ZM170.602 4.77344C170.602 4.24219 170.68 3.76562 170.836 3.34375C171 2.91406 171.223 2.55469 171.504 2.26562C171.785 1.97656 172.121 1.73828 172.512 1.55078C172.902 1.35547 173.316 1.21484 173.754 1.12891C174.191 1.04297 174.66 1 175.16 1H180.41V13H177.527V7.79688L173.016 13H169.688L173.812 8.44141C172.898 8.26172 172.133 7.85156 171.516 7.21094C170.906 6.57031 170.602 5.75781 170.602 4.77344ZM175.617 6.51953H177.527V3.15625H175.617C174.945 3.15625 174.418 3.30078 174.035 3.58984C173.66 3.87891 173.473 4.28125 173.473 4.79688C173.473 5.94531 174.188 6.51953 175.617 6.51953ZM195.633 13V6.76562L192.316 13H187.758L191.695 6.40234L187.91 1H192.633L195.633 6.0625V1H199.594V6.03906L202.594 1H207.223L203.531 6.37891L207.445 13H202.91L199.594 6.8125V13H195.633ZM224.086 13V1H229.395C230.551 1 231.473 1.26562 232.16 1.79688C232.855 2.32031 233.203 3.07031 233.203 4.04688C233.203 4.71094 233.035 5.26953 232.699 5.72266C232.363 6.16797 231.891 6.49609 231.281 6.70703C232.062 6.91016 232.676 7.27344 233.121 7.79688C233.574 8.3125 233.801 8.96875 233.801 9.76562C233.801 10.8125 233.441 11.6133 232.723 12.168C232.012 12.7227 231.043 13 229.816 13H224.086ZM228.961 2.125H225.48V6.30859H228.961C230.859 6.30859 231.809 5.60156 231.809 4.1875C231.809 2.8125 230.859 2.125 228.961 2.125ZM229.559 7.43359H225.48V11.875H229.559C230.465 11.875 231.156 11.6953 231.633 11.3359C232.117 10.9688 232.359 10.4258 232.359 9.70703C232.359 8.19141 231.426 7.43359 229.559 7.43359ZM235.699 7.792C235.699 11.128 237.931 13.24 241.555 13.24C245.731 13.24 248.659 10.072 248.659 6.208C248.659 2.872 246.403 0.759999 242.803 0.759999C238.603 0.759999 235.699 3.928 235.699 7.792ZM240.043 7.456C240.043 5.992 241.027 4.696 242.515 4.696C243.595 4.696 244.291 5.416 244.291 6.544C244.291 8.008 243.307 9.28 241.843 9.28C240.739 9.28 240.043 8.584 240.043 7.456ZM250.898 13V1H261.117V13H258.715V3.20312H253.289V13H250.898ZM266.285 1V11.5586L273.34 1H275.109V13H273.727V2.44141L266.66 13H264.891V1H266.285ZM302.402 8.85156C302.402 10.0938 301.996 11.0977 301.184 11.8633C300.371 12.6211 299.195 13 297.656 13H292.488V1H295.371V4.77344H297.633C299.125 4.77344 300.293 5.14844 301.137 5.89844C301.98 6.64844 302.402 7.63281 302.402 8.85156ZM297.41 7.16406H295.371V10.5977H297.41C298.129 10.5977 298.66 10.4414 299.004 10.1289C299.348 9.81641 299.52 9.38281 299.52 8.82812C299.52 7.71875 298.816 7.16406 297.41 7.16406Z" fill="black"/>
</svg>
