<svg width="40" height="45" viewBox="0 0 40 45" fill="none" xmlns="http://www.w3.org/2000/svg">
<g clip-path="url(#clip0)">
<path d="M33.4556 37C34.3089 37 35.0008 36.308 35.0008 35.4547V10.5453C35.0008 9.69167 34.3088 9 33.4556 9H8.54636C7.69271 9 7.00104 9.69178 7.00104 10.5453V35.4546C7.00104 36.308 7.69271 36.9999 8.54636 36.9999H33.4556V37Z" fill="black"/>
<path d="M26.3195 37.0001V26.157H29.9591L30.504 21.9312H26.3194V19.2332C26.3194 18.0098 26.6591 17.176 28.4136 17.176L30.6513 17.175V13.3955C30.2643 13.3441 28.9359 13.229 27.3907 13.229C24.1644 13.229 21.9556 15.1983 21.9556 18.8148V21.9312H18.3067V26.157H21.9556V37H26.3195V37.0001Z" fill="white"/>
<path d="M34.5844 35.3625C33.7622 35.946 32.9256 36.6631 32.0142 37.1066C31.6072 37.3046 32.3936 36.3231 32.4456 36.2529C33.7853 34.4443 34.5028 32.1404 36.3927 30.7546C38.2027 29.4272 36.1267 32.0217 35.7318 32.4894C34.0702 34.4571 32.3268 36.526 30.2334 38.0612C27.6123 39.9834 34.7917 33.122 37.8154 31.9295C37.881 31.9036 38.795 31.4821 38.5131 31.6633C37.9445 32.0288 37.6312 32.4827 37.228 33.0126C36.7564 33.6324 36.2736 34.6831 35.5757 35.0321" stroke="white" stroke-width="4" stroke-linecap="round" stroke-linejoin="round"/>
</g>
<circle cx="21.5" cy="23.5" r="14" stroke="white" stroke-width="5"/>
<path d="M12.5865 7.97137C11.6024 8.1124 10.7416 8.7886 9.96392 9.3411C8.41244 10.4434 6.91152 11.6359 5.51649 12.9198C4.85238 13.531 3.11034 15.5707 3.58196 14.8104C4.76278 12.9066 6.39891 11.216 7.92967 9.58225C10.2691 7.08541 12.8071 4.59127 15.7177 2.71432C16.4967 2.2119 15.6091 3.04151 15.4185 3.23521C14.2675 4.40479 13.3123 5.77551 12.3372 7.07912C10.1061 10.0619 7.88746 13.0445 5.5464 15.9486C4.61056 17.1095 3.69751 18.3161 2.65458 19.3922C2.57394 19.4754 2.18519 19.9836 2.01638 19.9999C1.93126 20.0081 2.20499 19.5386 2.21582 19.5176C2.29629 19.3619 2.22472 19.1896 2.31055 19.0401C2.49309 18.7223 2.58619 18.3755 2.77923 18.0562C4.88785 14.569 7.89043 11.5659 10.7866 8.69482C12.5906 6.90642 14.4364 5.17999 16.5054 3.67892C17.2788 3.11786 18.0889 2.56933 18.9884 2.21273C19.071 2.18001 20.3618 1.76975 19.9008 2.18379C19.0402 2.95685 17.9793 3.56744 17.024 4.21909C15.0667 5.5541 13.0983 6.87216 11.1206 8.17876C8.81593 9.70149 6.48355 11.1709 4.12044 12.6063C3.66443 12.8832 3.41674 13.1842 3.52213 12.5725" stroke="white" stroke-width="4" stroke-linecap="round" stroke-linejoin="round"/>
<path d="M4.37603 31.694C5.48751 33.2488 6.74812 34.5544 8.14683 35.8757C8.35725 36.0745 9.50501 37.0122 8.62956 36.3919C8.12531 36.0347 7.77394 35.4544 7.38174 34.9981C6.53597 34.014 5.68728 33.0317 4.83144 32.0554C4.48916 31.665 2.5517 29.6368 3.95706 30.9885C5.82448 32.7847 7.66558 34.5387 9.65879 36.2199C11.0351 37.3808 12.4117 38.9259 13.9488 39.8939C14.7546 40.4014 12.2617 38.9905 11.4622 38.4742C8.44433 36.5255 5.77397 34.2829 3.37413 31.6768C3.22828 31.5184 1.54818 29.6467 2.1172 30.0592C4.46724 31.763 6.84753 33.3712 9.29446 34.955C10.5687 35.7798 11.8443 36.6022 13.1199 37.4245C13.4049 37.6081 13.7431 37.8409 13.9488 38.1128C14.0892 38.2985 13.2553 38.0965 13.1928 38.0784C12.4842 37.8724 11.879 37.8356 11.1525 37.5105C10.1475 37.0608 9.22058 36.497 8.25613 35.9789C7.89349 35.7841 7.51747 35.6214 7.14493 35.4455C7.03074 35.3916 6.76785 35.1736 6.79881 35.2906C6.88335 35.61 7.70285 36.1926 7.92823 36.4436C8.86053 37.4816 9.86797 38.445 10.943 39.3518C12.8231 40.9376 14.689 42.0904 17 43" stroke="white" stroke-width="4" stroke-linecap="round" stroke-linejoin="round"/>
<path d="M29.9503 8.75921C31.1859 9.32848 32.2394 10.1674 33.1275 11.2442C34.0032 12.306 30.7722 9.96722 29.7116 9.12996C28.9446 8.52453 28.1268 7.99086 27.3792 7.35637C27.3423 7.32501 26.8565 6.70497 27.0119 7.17601C27.1875 7.7083 28.0004 8.16261 28.3801 8.4586C30.3254 9.97488 32.1661 11.65 34.1284 13.1381C34.3437 13.3013 35.6894 14.0988 35.5334 13.9898C34.8172 13.4897 34.1076 13.1037 33.4581 12.4667C32.7016 11.7248 32.1078 10.8081 31.3736 10.0418C31.2633 9.92667 30.6424 9.15298 31.2175 9.32035C32.7852 9.77654 34.3091 10.5418 35.864 11.0639C36.764 11.3661 34.1831 10.1116 33.4397 9.48067C33.2709 9.33741 32.7819 8.79766 33.2561 9.30031C33.9042 9.98736 34.6655 10.5427 35.4048 11.104C36.1673 11.6828 36.8933 12.3319 37.6821 12.8675C38.5959 13.488 37.2931 13.2845 36.8557 13.1481C35.4228 12.7014 33.9871 11.6247 32.6959 10.8334C32.0026 10.4085 31.3427 9.91486 30.639 9.51074C30.4159 9.38256 29.9885 9.27718 29.8218 9.0498C28.701 7.52098 32.5167 11.6354 33.8805 12.9076C34.2321 13.2356 34.5821 13.5215 34.9641 13.7994C35.7088 14.3412 33.3115 13.0464 32.5031 12.627C30.6891 11.686 28.247 10.6307 26.7732 9.07986C26.1421 8.41584 24.3545 8.45067 24 7.67702" stroke="white" stroke-width="4" stroke-linecap="round" stroke-linejoin="round"/>
<defs>
<clipPath id="clip0">
<rect width="28" height="28" fill="white" transform="translate(7 9)"/>
</clipPath>
</defs>
</svg>
