<svg width="28" height="28" viewBox="0 0 28 28" fill="none" xmlns="http://www.w3.org/2000/svg">
<path d="M18.6659 14C18.6659 11.4228 16.5772 9.33296 14 9.33296C11.4228 9.33296 9.33296 11.4228 9.33296 14C9.33296 16.5772 11.4228 18.667 14 18.667C16.5772 18.667 18.6659 16.5772 18.6659 14ZM21.1889 14C21.1889 17.9704 17.9704 21.1889 14 21.1889C10.0296 21.1889 6.81115 17.9704 6.81115 14C6.81115 10.0296 10.0296 6.81115 14 6.81115C17.9704 6.81115 21.1889 10.0296 21.1889 14ZM8.20662 6.52617C8.20662 7.45347 7.4546 8.20662 6.52617 8.20662C5.59887 8.20662 4.84572 7.45347 4.84572 6.52617C4.84572 5.59887 5.59774 4.84685 6.52617 4.84685C7.4546 4.84685 8.20662 5.59887 8.20662 6.52617ZM19.6565 25.3956C21.0215 25.3334 21.7633 25.1061 22.2564 24.9139C22.91 24.6595 23.3759 24.3564 23.8667 23.8667C24.3564 23.3771 24.6606 22.9111 24.9139 22.2575C25.1061 21.7645 25.3334 21.0226 25.3956 19.6577C25.4635 18.1819 25.4771 17.7386 25.4771 14C25.4771 10.2614 25.4624 9.81922 25.3956 8.34233C25.3334 6.97738 25.105 6.23667 24.9139 5.74249C24.6595 5.08885 24.3564 4.62294 23.8667 4.13215C23.3771 3.64249 22.9111 3.33829 22.2564 3.08498C21.7633 2.89273 21.0215 2.66543 19.6565 2.60323C18.1808 2.53538 17.7375 2.52181 14 2.52181C10.2614 2.52181 9.81922 2.53651 8.34233 2.60323C6.97738 2.66543 6.23667 2.89386 5.74249 3.08498C5.08885 3.33829 4.62294 3.64249 4.13215 4.13215C3.64248 4.62181 3.33942 5.08885 3.08497 5.74249C2.89273 6.23554 2.66543 6.97738 2.60323 8.34233C2.53538 9.81922 2.52181 10.2614 2.52181 14C2.52181 17.7375 2.53538 18.1808 2.60323 19.6577C2.66543 21.0226 2.89386 21.7645 3.08497 22.2575C3.33942 22.9111 3.64248 23.3771 4.13215 23.8667C4.62181 24.3564 5.08885 24.6595 5.74249 24.9139C6.23554 25.1061 6.97738 25.3334 8.34233 25.3956C9.81809 25.4635 10.2614 25.4771 14 25.4771C17.7375 25.4771 18.1808 25.4635 19.6565 25.3956ZM19.7719 0.0848142C21.2624 0.152666 22.2801 0.389015 23.1701 0.735057C24.0906 1.09241 24.8709 1.57189 25.6501 2.34992C26.4281 3.12795 26.9076 3.90824 27.2649 4.82989C27.611 5.71987 27.8473 6.73764 27.9152 8.22811C27.9842 9.72084 28 10.1981 28 14C28 17.8019 27.9842 18.2792 27.9152 19.7719C27.8473 21.2624 27.611 22.2801 27.2649 23.1701C26.9076 24.0906 26.4292 24.8721 25.6501 25.6501C24.8721 26.4281 24.0918 26.9065 23.1701 27.2649C22.279 27.611 21.2624 27.8473 19.7719 27.9152C18.278 27.983 17.8019 28 14 28C10.1969 28 9.72084 27.9842 8.22811 27.9152C6.73764 27.8473 5.71987 27.611 4.82989 27.2649C3.90937 26.9065 3.12908 26.4281 2.34992 25.6501C1.57189 24.8721 1.09354 24.0906 0.735054 23.1701C0.389013 22.2801 0.151533 21.2624 0.0848122 19.7719C0.0169601 18.278 0.00113106 17.8019 0.00113106 14C0.00113106 10.1981 0.0169601 9.72084 0.0848122 8.22811C0.152664 6.73764 0.389013 5.71987 0.735054 4.82989C1.09354 3.90937 1.57189 3.12908 2.34992 2.34992C3.12795 1.57189 3.90937 1.09241 4.82875 0.735057C5.71987 0.389015 6.73764 0.151535 8.22698 0.0848142C9.71971 0.0169628 10.1969 0 13.9989 0C17.8019 0 18.278 0.015832 19.7719 0.0848142Z" fill="black"/>
</svg>
