<?xml version="1.0" encoding="utf-8"?>
<!-- Generator: Adobe Illustrator 24.3.0, SVG Export Plug-In . SVG Version: 6.00 Build 0)  -->
<svg version="1.1" id="Layer_1" xmlns="http://www.w3.org/2000/svg" xmlns:xlink="http://www.w3.org/1999/xlink" x="0px" y="0px"
	 viewBox="0 0 281 188" style="enable-background:new 0 0 281 188;" xml:space="preserve">
<style type="text/css">
	.st0{clip-path:url(#SVGID_2_);}
	.st1{fill:none;stroke:#FFFFFF;stroke-width:26;}
	.st2{fill:none;stroke:#FFFFFF;stroke-width:7;}
	.st3{fill:none;stroke:#FFFFFF;stroke-width:11;}
	.st4{fill:none;stroke:#FFFFFF;stroke-width:5;}
	.st5{fill:none;stroke:#FFFFFF;stroke-width:10;}
	.st6{fill:#AD3D27;}
</style>
<g>
	<defs>
		<rect id="SVGID_1_" x="43" y="-11" width="374" height="268"/>
	</defs>
	<clipPath id="SVGID_2_">
		<use xlink:href="#SVGID_1_"  style="overflow:visible;"/>
	</clipPath>
	<g class="st0">
		<path d="M100.5,129.5l-16,49.9h13.8l1.9-6.7h5.5l-0.9,6.7h13.6l5.2-49.9H100.5z M107.2,161.5h-3.8l7.2-25L107.2,161.5z"/>
		<polygon points="155.3,129.5 146.8,169.8 150.8,129.5 131,129.5 120.4,179.4 131.4,179.4 140,138.5 135.6,179.4 155.7,179.4 
			166.3,129.5 		"/>
		<polygon points="253.6,124.9 264.3,124.9 273,114.9 258.4,114.9 		"/>
		<polygon points="234.2,179.4 261.1,179.4 263.6,167.5 251,167.5 252.6,160.1 263.9,160.1 266.4,148.2 255.2,148.2 256.6,141.5 
			269.1,141.5 271.7,129.5 244.8,129.5 		"/>
		<path d="M238.7,144.4l0.3-1.6c1.5-8.8-4.3-13.3-15.2-13.3h-15.6l-10.6,49.9h14.3l5.2-24.6h0.1l-0.3,24.6h15.3l-2.1-23.7
			C234.4,154,237.6,150.6,238.7,144.4z M224,145.8l-0.3,1.3c-0.8,4.1-2.7,5.3-4.8,5.3h-1.3l2.5-11.6h1
			C224,140.8,224.7,142.1,224,145.8z"/>
		<path d="M200.4,150.8c3-14-2.2-21.2-14-21.2h-16.2l-10.6,49.9h20.2c9.3,0,15.2-3.9,17.8-16L200.4,150.8z M186.7,146.2l-3.5,16.6
			c-0.8,3.7-1.7,4.7-3.5,4.7h-2.8l5.5-26h2.1C186.4,141.5,187.4,142.7,186.7,146.2z"/>
		<polygon points="102.6,5.6 92.9,40.5 97.9,5.6 76.3,5.6 65.7,55.5 77.7,55.5 87.1,11.1 83,55.5 96.3,55.5 111,11.1 101.6,55.5 
			113.6,55.5 124.2,5.6 		"/>
		<path d="M173.7,4.2c-8.7,0-15.6,4.2-15.7,14.6c-0.1,11,11.3,19.7,11.3,24.9c0,1.5-0.9,2.5-2.3,2.5c-1.4,0.1-2.3-1.3-1.9-3.7
			l0.6-3.7h-12.6l-0.5,2.9c-1.7,10.6,5.8,15.1,13.8,15.1c9.6,0,16.8-5,16.8-15c0-12-11.4-20-11.4-24.9c0-1.3,0.8-2.1,1.9-2.1
			c1.2,0,2.3,1,1.9,2.9l-0.7,3.8h12.4l0.7-4C189.5,8.7,181.7,4.2,173.7,4.2z"/>
		<path d="M131.6,5.6l-16,49.9h13.8l1.9-6.7h5.5l-0.9,6.7h13.6l5.2-49.9H131.6z M138.4,37.5h-3.8l7.2-25L138.4,37.5z"/>
		<path d="M145.9,83.9h12.4l0.7-4c1.5-8.8-6.3-13.3-14.3-13.3c-8.7,0-15.6,4.2-15.7,14.6c-0.1,11,11.3,19.7,11.3,24.9
			c0,1.5-0.9,2.5-2.3,2.5c-1.4,0.1-2.3-1.3-1.9-3.7l0.6-3.7H124l-0.5,2.9c-1.7,10.6,5.8,15.1,13.8,15.1c9.6,0,16.8-5,16.8-15
			c0-12-11.4-20-11.4-24.9c0-1.3,0.8-2.1,1.9-2.1c1.2,0,2.3,1,1.9,2.9L145.9,83.9z"/>
		<polygon points="218.4,108.2 222.5,67.9 202.6,67.9 192.1,117.8 203,117.8 211.7,76.9 207.3,117.8 227.3,117.8 237.9,67.9 
			226.9,67.9 		"/>
		<path d="M179.6,66.6c-9.6,0-16,4-18.6,16l-3.3,15.3c-2.9,13.6,2.5,21.2,15.4,21.2c9.8,0,16.1-3.8,18.7-16l3.3-15.3
			C198,74.2,192.6,66.6,179.6,66.6z M181.4,83.2l-4.1,19.3c-0.8,3.7-1.8,4.7-3.7,4.7c-2.1,0-3-1.3-2.3-4.7l4.1-19.3
			c0.8-3.7,1.8-4.7,3.7-4.7C181.1,78.6,182.1,79.9,181.4,83.2z"/>
		<path class="st1" d="M227.7,251.2"/>
		<path class="st1" d="M60,3.2l125,184.8"/>
		<path class="st2" d="M162.5,141.4l2.1-9.7l-2.1-8.3l-15.6,2.8v10v5.2l15.6,1.7l-8-11.4l4.2-3.1v3.1l1.4,1.7l0.3,1.4v1.7l1.7-3.5
			v-2.2l-1-1.9l-0.7-1.4l-4.8-0.3l-2.4,6.6l1.7,3.1l2.8,3.5"/>
		<path class="st2" d="M96.3,66.4L91,58l-7.3-4.5l-9.1,12.9l7.1,7.1l3.6,3.7l12.3-9.7l-13.7-2.5l0.8-5.1l2.2,2.2l2.2,0.3l1.2,0.7
			l1.2,1.2l-1.2-3.7l-1.6-1.6l-2.1-0.6L85.1,58l-3.7,3.2l2.9,6.4l3.4,1l4.4,0.5"/>
		<path class="st2" d="M82.9,50.3l-7.7-12.4l-10.9-6.4L49.7,51.6l10.4,10.5l5.4,5.4l19.2-15.4L64,49l1.4-7.9l3.2,3.3l3.3,0.3
			l1.8,1.1l1.8,1.8L73.9,42l-2.3-2.3l-3.2-0.9l-2.2-0.7l-5.8,5l4.1,9.6l5.2,1.3l6.7,0.6"/>
		<path class="st2" d="M162.3,175.3l-3.7,9.2l0.6,8.5l15.8,0l1.7-9.9l0.9-5.1l-15-4.4l5.9,12.6l-4.6,2.3l0.5-3.1l-1.1-1.9l-0.1-1.4
			l0.3-1.7l-2.3,3.1l-0.4,2.2l0.7,2.1l0.4,1.5l4.7,1.2l3.5-6.1L169,181l-2.1-3.9"/>
		<path class="st3" d="M158,154.5l0.7-5.5"/>
		<path class="st4" d="M160.4,177l3.1-6.9v-5.9"/>
		<path class="st5" d="M64.5,43.4l5.2,3.8h2.4h7.3v8.7H67.9l1.7-14.9"/>
	</g>
</g>
<path class="st6" d="M86.3,33.3L85.4,32l-6.2,4.2l0.8,1.2l3.4-2.3c1.2-0.8,2.2-0.7,2.9,0.3c0.6,0.9,0.4,1.9-0.8,2.8l-3.4,2.3
	l0.8,1.2l3.6-2.5c1.8-1.2,2-2.8,1.1-4.2c-0.6-0.8-1.4-1.2-2.4-1.1L86.3,33.3z"/>
<rect x="76.9" y="30.9" transform="matrix(0.829 -0.5593 0.5593 0.829 -3.9061 50.5281)" class="st6" width="7.5" height="1.5"/>
<path class="st6" d="M86.5,28.9c0.5-0.3,0.6-0.9,0.3-1.4c-0.3-0.5-0.9-0.6-1.4-0.3c-0.5,0.3-0.6,0.9-0.3,1.4
	C85.5,29.1,86,29.2,86.5,28.9z"/>
<path class="st6" d="M69,19c-0.3,0.9-0.2,1.9,0.3,2.8c1.1,1.7,3.3,2.1,5.2,0.8c1.9-1.3,2.4-3.5,1.2-5.2c-0.6-0.8-1.4-1.3-2.4-1.3
	l0.9-0.6l-0.8-1.2l-9.3,6.3l0.8,1.2L69,19z M71.2,17.6c1.3-0.8,2.6-0.6,3.4,0.5c0.7,1.1,0.4,2.5-0.8,3.3c-1.3,0.8-2.6,0.6-3.4-0.5
	C69.6,19.8,69.9,18.4,71.2,17.6z"/>
<path class="st6" d="M60.9,24.8c0.5-0.3,0.6-0.9,0.3-1.4c-0.3-0.5-0.9-0.6-1.4-0.3c-0.5,0.3-0.6,0.9-0.3,1.4
	C59.8,25.1,60.4,25.1,60.9,24.8z"/>
<path class="st6" d="M74,28.8c1,1.4,2.4,2,3.9,1.6L77.1,29c-0.7,0.1-1.4-0.1-1.9-0.9c-0.7-1-0.5-2.2,0.4-3l3.3,4.9
	c0.1-0.1,0.3-0.2,0.4-0.3c1.9-1.3,2.4-3.5,1.2-5.2c-1.2-1.8-3.4-2.2-5.3-0.9C73.3,24.8,72.8,27,74,28.8z M79.4,25.1
	c0.7,1,0.5,2.1-0.4,3l-2.5-3.7C77.6,23.9,78.7,24.1,79.4,25.1z"/>
<path class="st6" d="M47.3,57c0.6,0.8,1.4,1.3,2.4,1.3L48.8,59l0.8,1.2l9.3-6.3l-0.8-1.2l-4,2.7c0.3-0.9,0.2-1.9-0.3-2.8
	c-1.1-1.7-3.3-2.1-5.2-0.8C46.6,53.2,46.1,55.3,47.3,57z M49.3,53.1c1.3-0.8,2.6-0.6,3.4,0.5c0.7,1.1,0.4,2.5-0.8,3.3
	c-1.3,0.8-2.6,0.6-3.4-0.5S48.1,54,49.3,53.1z"/>
<rect x="51.3" y="26.8" transform="matrix(0.829 -0.5593 0.5593 0.829 -6.0196 35.4823)" class="st6" width="7.5" height="1.5"/>
<path class="st6" d="M86.4,42.4c-1.7,1.1-1.6,2.3-0.8,3.5c0.2,0.4,0.6,0.7,0.8,0.9l1.1-0.7c-0.2-0.2-0.4-0.4-0.6-0.7
	c-0.5-0.7-0.4-1.3,0.4-1.8l3-2l1.2,1.8l1.1-0.7l-1.2-1.8l1.8-1.2l-0.8-1.2l-1.8,1.2l-0.7-1l-1.1,0.7l0.7,1L86.4,42.4z"/>
<rect x="53" y="28.9" transform="matrix(0.829 -0.5593 0.5593 0.829 -6.5366 37.8622)" class="st6" width="11.2" height="1.5"/>
<polygon class="st6" points="60.5,60.2 63.1,60.1 62.2,58.7 59.8,59.2 "/>
<path class="st6" d="M81.2,68.6l3-2l1.2,1.8l1.1-0.7l-1.2-1.8l1.8-1.2l-0.8-1.2l-1.8,1.2l-0.7-1l-1.1,0.7l0.7,1l-3.1,2.1
	c-1.7,1.1-1.6,2.3-0.8,3.5c0.2,0.4,0.6,0.7,0.8,0.9l1.1-0.7c-0.2-0.2-0.4-0.4-0.6-0.7C80.4,69.7,80.5,69.1,81.2,68.6z"/>
<path class="st6" d="M76.9,66.7l4.4-2.9c1.4-1,1.2-2.6,0.2-3.9c-0.9-1.4-2.4-2.2-4-1.2l0.9,1.3c0.8-0.5,1.6-0.3,2.1,0.5
	c0.5,0.8,0.6,1.6,0,2c-1.4,1-2.9-4.1-5.6-2.3c-1.2,0.8-1.1,2.2-0.3,3.3c0.6,0.9,1.5,1.5,2.6,1.3l-1,0.7L76.9,66.7z M75.7,63
	c-0.4-0.6-0.5-1.3,0.1-1.6c1-0.7,2.1,1.4,3.3,2.1l-0.4,0.3C77.5,64.5,76.4,64,75.7,63z"/>
<path class="st6" d="M88.2,49.6l3.1-2.1c1.3-0.9,2.4-0.6,3.2,0.6c0.2,0.2,0.3,0.5,0.3,0.7l1.4-0.9c0-0.1-0.1-0.3-0.2-0.4
	c-0.6-0.9-1.6-1.4-2.7-1.3l1.1-0.8l-0.8-1.2l-6.2,4.2L88.2,49.6z"/>
<polygon class="st6" points="55.2,86.5 56.2,83.9 55.3,82.6 52.6,82.5 53.3,83.6 55,83.8 54.6,85.5 "/>
<path class="st6" d="M57.3,65.9c0.1-0.1,0.3-0.2,0.4-0.3c1.9-1.3,2.4-3.5,1.2-5.2c-1.2-1.8-3.4-2.2-5.3-0.9
	c-1.9,1.3-2.4,3.5-1.2,5.2c1,1.4,2.4,2,3.9,1.6L55.5,65c-0.7,0.1-1.4-0.1-1.9-0.9c-0.7-1-0.5-2.2,0.4-3L57.3,65.9z M57.8,61.1
	c0.7,1,0.5,2.1-0.4,3l-2.5-3.7C56.1,59.9,57.2,60.1,57.8,61.1z"/>
<path class="st6" d="M93.6,50.8c-1.9,1.3-2.4,3.5-1.2,5.2c1,1.4,2.4,2,3.9,1.6l-0.9-1.3c-0.7,0.1-1.4-0.1-1.9-0.9
	c-0.7-1-0.5-2.2,0.4-3l3.3,4.9c0.1-0.1,0.3-0.2,0.4-0.3c1.9-1.3,2.4-3.5,1.2-5.2C97.7,49.9,95.5,49.5,93.6,50.8z M97.8,52.4
	c0.7,1,0.5,2.1-0.4,3l-2.5-3.7C96,51.1,97.1,51.4,97.8,52.4z"/>
<path class="st6" d="M87.8,77c0.1-0.1,0.3-0.2,0.4-0.3c1.9-1.3,2.4-3.5,1.2-5.2c-1.2-1.8-3.4-2.2-5.3-0.9c-1.9,1.3-2.4,3.5-1.2,5.2
	c1,1.4,2.4,2,3.9,1.6l-0.9-1.3c-0.7,0.1-1.4-0.1-1.9-0.9c-0.7-1-0.5-2.2,0.4-3L87.8,77z M88.3,72.3c0.7,1,0.5,2.1-0.4,3l-2.5-3.7
	C86.5,71,87.6,71.3,88.3,72.3z"/>
<path class="st6" d="M89.6,85.6l6.2-4.2L95,80.2l-3.4,2.3c-1.2,0.8-2.3,0.7-2.9-0.2c-0.6-0.9-0.4-1.9,0.9-2.7l3.4-2.3L92.2,76
	l-3.6,2.4c-1.9,1.2-2,2.8-1.1,4.2c0.5,0.8,1.4,1.2,2.4,1.1l-1,0.7L89.6,85.6z"/>
<path class="st6" d="M63.2,72.3c1.5-1.2,1.6-3.2,0.5-4.8c-1.2-1.8-3.4-2.2-5.3-0.9c-1.9,1.3-2.3,3.5-1.1,5.3
	c1.1,1.7,3.1,2.3,4.8,1.3l-0.9-1.3c-1.1,0.6-2.2,0.2-2.8-0.7c-0.7-1.1-0.4-2.4,0.8-3.3c1.3-0.8,2.6-0.6,3.3,0.4
	c0.6,0.9,0.6,2-0.3,2.8L63.2,72.3z"/>
<polygon class="st6" points="48.9,77.1 49.6,78.1 52.2,78 51.3,76.6 "/>
<path class="st6" d="M69.1,55.2l1.1-0.7c-0.2-0.2-0.4-0.4-0.6-0.7c-0.5-0.7-0.4-1.3,0.4-1.8l3-2l1.2,1.8l1.1-0.7l-1.2-1.8l1.8-1.2
	l-0.8-1.2l-1.8,1.2l-0.7-1l-1.1,0.7l0.7,1l-3.1,2.1c-1.7,1.1-1.6,2.3-0.8,3.5C68.6,54.6,68.9,55,69.1,55.2z"/>
<path class="st6" d="M67.6,49.1c2.5-1.7-1.1-4.8,0.3-5.7c0.5-0.3,1.1-0.1,1.5,0.6c0.5,0.7,0.4,1.5-0.2,2l0.9,1.3
	c1.1-0.8,1.3-2.5,0.3-3.9c-0.9-1.3-2.3-1.9-3.4-1.1c-2.5,1.7,1.2,4.6-0.3,5.7c-0.6,0.4-1.1,0.1-1.7-0.6c-0.5-0.8-0.6-1.7,0.2-2.2
	l-0.9-1.3C63,44.7,63,46.4,64,47.9C65,49.4,66.4,49.9,67.6,49.1z"/>
<path class="st6" d="M97.3,59.6c-0.3-0.5-0.9-0.6-1.4-0.3c-0.4,0.3-0.6,0.9-0.3,1.4c-0.5,0.2-1.2,0.3-2,0.3l0.5,0.7
	c1.1,0,2.2-0.2,2.8-0.6C97.5,60.7,97.6,60.1,97.3,59.6z"/>
<path class="st6" d="M74,55.8c1.3-0.9,2.4-0.6,3.2,0.6c0.2,0.2,0.3,0.5,0.3,0.7l1.4-0.9c0-0.1-0.1-0.3-0.2-0.4
	c-0.6-0.9-1.6-1.4-2.7-1.3l1.1-0.8l-0.8-1.2l-6.2,4.2l0.8,1.2L74,55.8z"/>
<path class="st6" d="M61.5,41.8l-1,0.7l0.8,1.2l6.2-4.2l-0.8-1.2l-3.4,2.3c-1.2,0.8-2.3,0.7-2.9-0.2c-0.6-0.9-0.4-1.9,0.9-2.7
	l3.4-2.3l-0.8-1.2l-3.6,2.4c-1.9,1.2-2,2.8-1.1,4.2C59.7,41.5,60.5,41.9,61.5,41.8z"/>
<path class="st6" d="M42.8,45.7c-1.7,1.1-1.6,2.3-0.8,3.5c0.2,0.4,0.6,0.7,0.8,0.9l1.1-0.7c-0.2-0.2-0.4-0.4-0.6-0.7
	c-0.5-0.7-0.4-1.3,0.4-1.8l3-2l1.2,1.8l1.1-0.7l-1.2-1.8l1.8-1.2l-0.8-1.2l-1.8,1.2l-0.7-1l-1.1,0.7l0.7,1L42.8,45.7z"/>
<rect x="55.1" y="32" transform="matrix(0.829 -0.5593 0.5593 0.829 -7.9058 39.553)" class="st6" width="11.3" height="1.5"/>
<path class="st6" d="M59.8,98.4c0.2,0.2,0.3,0.5,0.3,0.7l1.4-0.9c0-0.1-0.1-0.3-0.2-0.4c-0.6-0.9-1.6-1.4-2.7-1.3l1.1-0.8l-0.8-1.2
	l-6.2,4.2l0.8,1.2l3.1-2.1C57.9,97,59,97.2,59.8,98.4z"/>
<path class="st6" d="M44.4,66.4l-9.3,6.3l0.8,1.2l3.4-2.3c1.2-0.8,2.2-0.7,2.9,0.3c0.6,0.9,0.4,1.9-0.8,2.8L38,77l0.8,1.2l3.6-2.5
	c1.8-1.2,2-2.8,1.1-4.2c-0.6-0.8-1.4-1.2-2.4-1.1l4.1-2.8L44.4,66.4z"/>
<path class="st6" d="M90.2,107l-3.4,2.3c-1.2,0.8-2.3,0.7-2.9-0.2c-0.6-0.9-0.4-1.9,0.9-2.7l3.4-2.3l-0.8-1.2l-3.6,2.4
	c-1.9,1.2-2,2.8-1.1,4.2c0.5,0.8,1.4,1.2,2.4,1.1l-1,0.7l0.8,1.2l6.2-4.2L90.2,107z"/>
<path class="st6" d="M96.8,85.3l1.1-0.8l-0.8-1.2l-6.2,4.2l0.8,1.2l3.1-2.1c1.3-0.9,2.4-0.6,3.2,0.6c0.2,0.2,0.3,0.5,0.3,0.7
	l1.4-0.9c0-0.1-0.1-0.3-0.2-0.4C98.9,85.6,97.9,85.2,96.8,85.3z"/>
<path class="st6" d="M76,97.2c-0.5-0.7-0.4-1.3,0.4-1.8l3-2l1.2,1.8l1.1-0.7l-1.2-1.8l1.8-1.2l-0.8-1.2l-1.8,1.2l-0.7-1l-1.1,0.7
	l0.7,1l-3.1,2.1c-1.7,1.1-1.6,2.3-0.8,3.5c0.2,0.4,0.6,0.7,0.8,0.9l1.1-0.7C76.4,97.7,76.2,97.5,76,97.2z"/>
<path class="st6" d="M92,112.1l1.1-0.8l-0.8-1.2l-6.2,4.2l0.8,1.2l3.1-2.1c1.3-0.9,2.4-0.6,3.2,0.6c0.2,0.2,0.3,0.5,0.3,0.7l1.4-0.9
	c0-0.1-0.1-0.3-0.2-0.4C94.1,112.5,93.1,112,92,112.1z"/>
<path class="st6" d="M68.5,74.7c-1.2-1.8-3.5-2.2-5.4-1c-1.9,1.3-2.3,3.5-1.1,5.3c1.2,1.8,3.5,2.2,5.4,1
	C69.3,78.7,69.8,76.5,68.5,74.7z M66.6,78.7c-1.3,0.8-2.6,0.6-3.4-0.5c-0.7-1.1-0.5-2.5,0.8-3.3c1.3-0.8,2.6-0.6,3.4,0.5
	S67.9,77.9,66.6,78.7z"/>
<path class="st6" d="M72.4,83.2c0.2,0.2,0.3,0.5,0.3,0.7l1.4-0.9c0-0.1-0.1-0.3-0.2-0.4c-0.6-0.9-1.6-1.4-2.7-1.3l1.1-0.8l-0.8-1.2
	l-6.2,4.2l0.8,1.2l3.1-2.1C70.5,81.7,71.6,82,72.4,83.2z"/>
<path class="st6" d="M76.6,86.7c-0.9-1.4-2.4-2.2-4-1.2l0.9,1.3c0.8-0.5,1.6-0.3,2.1,0.5c0.5,0.8,0.6,1.6,0,2
	c-1.4,1-2.9-4.1-5.6-2.3c-1.2,0.8-1.1,2.2-0.3,3.3c0.6,0.9,1.5,1.5,2.6,1.3l-1,0.7l0.8,1.2l4.4-2.9C77.8,89.6,77.6,88,76.6,86.7z
	 M73.8,90.6c-1.1,0.7-2.2,0.2-2.9-0.7c-0.4-0.6-0.5-1.3,0.1-1.6c1-0.7,2.1,1.4,3.3,2.1L73.8,90.6z"/>
<path class="st6" d="M115.6,76.4c-0.9-1.4-2.4-2.2-4-1.2l0.9,1.3c0.8-0.5,1.6-0.3,2.1,0.5c0.5,0.8,0.6,1.6,0,2
	c-1.4,1-2.9-4.1-5.6-2.3c-1.2,0.8-1.1,2.2-0.3,3.3c0.6,0.9,1.5,1.5,2.6,1.3l-1,0.7l0.8,1.2l4.4-2.9
	C116.8,79.3,116.5,77.7,115.6,76.4z M112.7,80.3c-1.1,0.7-2.2,0.2-2.9-0.7c-0.4-0.6-0.5-1.3,0.1-1.6c1-0.7,2.1,1.4,3.3,2.1
	L112.7,80.3z"/>
<path class="st6" d="M119.1,93.2c-0.7-1-0.5-2.2,0.4-3l3.3,4.9c0.1-0.1,0.3-0.2,0.4-0.3c1.9-1.3,2.4-3.5,1.2-5.2
	c-1.2-1.8-3.4-2.2-5.3-0.9c-1.9,1.3-2.4,3.5-1.2,5.2c1,1.4,2.4,2,3.9,1.6l-0.9-1.3C120.3,94.2,119.6,94,119.1,93.2z M123.3,90.3
	c0.7,1,0.5,2.1-0.4,3l-2.5-3.7C121.6,89,122.6,89.2,123.3,90.3z"/>
<path class="st6" d="M129.1,108.6c-0.4,0.3-0.6,0.9-0.3,1.4c-0.5,0.2-1.2,0.3-2,0.3l0.5,0.7c1.1,0,2.2-0.2,2.8-0.6
	c0.6-0.4,0.7-1,0.4-1.5C130.1,108.4,129.5,108.3,129.1,108.6z"/>
<path class="st6" d="M130.1,98.2l-3.4,2.3c-1.2,0.8-2.3,0.7-2.9-0.2c-0.6-0.9-0.4-1.9,0.9-2.7l3.4-2.3l-0.8-1.2l-3.6,2.4
	c-1.9,1.2-2,2.8-1.1,4.2c0.5,0.8,1.4,1.2,2.4,1.1l-1,0.7l0.8,1.2l6.2-4.2L130.1,98.2z"/>
<path class="st6" d="M131.9,103.3l1.1-0.8l-0.8-1.2l-6.2,4.2l0.8,1.2l3.1-2.1c1.3-0.9,2.4-0.6,3.2,0.6c0.2,0.2,0.3,0.5,0.3,0.7
	l1.4-0.9c0-0.1-0.1-0.3-0.2-0.4C133.9,103.6,133,103.2,131.9,103.3z"/>
<path class="st6" d="M108.3,65.9l-0.9,0.6c0.3-0.9,0.2-1.9-0.3-2.8c-1.1-1.7-3.3-2.1-5.2-0.8c-1.9,1.3-2.4,3.5-1.2,5.2
	c0.6,0.8,1.4,1.3,2.4,1.3l-1,0.7c-1.2,0.8-2.5,0.7-3.3-0.4c-0.7-1-0.5-2.1,0.3-2.8l-0.8-1.3c-1.5,1.3-1.7,3.2-0.6,4.9
	c1.1,1.7,3.4,2.2,5.2,0.9l6.3-4.2L108.3,65.9z M105.2,68c-1.3,0.8-2.6,0.6-3.4-0.5c-0.7-1.1-0.4-2.5,0.8-3.3
	c1.3-0.8,2.6-0.6,3.4,0.5C106.7,65.8,106.5,67.2,105.2,68z"/>
<path class="st6" d="M111.3,72.9c0.2,0.2,0.3,0.5,0.3,0.7l1.4-0.9c0-0.1-0.1-0.3-0.2-0.4c-0.6-0.9-1.6-1.4-2.7-1.3l1.1-0.8l-0.8-1.2
	l-6.2,4.2l0.8,1.2l3.1-2.1C109.4,71.5,110.5,71.7,111.3,72.9z"/>
<path class="st6" d="M58.8,101.2c-1.9,1.3-2.4,3.5-1.2,5.2c1,1.4,2.4,2,3.9,1.6l-0.9-1.3c-0.7,0.1-1.4-0.1-1.9-0.9
	c-0.7-1-0.5-2.2,0.4-3l3.3,4.9c0.1-0.1,0.3-0.2,0.4-0.3c1.9-1.3,2.4-3.5,1.2-5.2C62.9,100.3,60.7,99.9,58.8,101.2z M62.6,105.7
	l-2.5-3.7c1.1-0.6,2.2-0.3,2.9,0.7C63.7,103.8,63.5,104.9,62.6,105.7z"/>
<polygon class="st6" points="121,84.7 114.6,86.5 118.7,81.3 117.8,80 113,86.3 114.2,88 121.8,86 "/>
<path class="st6" d="M79.2,102c-0.7-1-0.5-2.2,0.4-3l3.3,4.9c0.1-0.1,0.3-0.2,0.4-0.3c1.9-1.3,2.4-3.5,1.2-5.2
	c-1.2-1.8-3.4-2.2-5.3-0.9c-1.9,1.3-2.4,3.5-1.2,5.2c1,1.4,2.4,2,3.9,1.6l-0.9-1.3C80.4,103.1,79.7,102.8,79.2,102z M83.4,99.1
	c0.7,1,0.5,2.1-0.4,3l-2.5-3.7C81.7,97.8,82.8,98.1,83.4,99.1z"/>
<path class="st6" d="M11.7,60.9l1.1-0.7l-1.2-1.8l0.9-0.6c0.8-0.5,1.5-0.3,1.9,0.4c0.2,0.3,0.3,0.6,0.4,0.8l1.1-0.8
	c-0.1-0.3-0.3-0.6-0.5-0.9c-0.9-1.3-2.4-1.7-3.8-0.8l-1,0.7L10,56.1l-1.1,0.7l0.7,1.1l-5.1,3.5l0.8,1.2l5.1-3.5L11.7,60.9z"/>
<path class="st6" d="M24,54.2l-0.9,0.6l0.8,1.2l9.3-6.3l-0.8-1.2l-4,2.7c0.3-0.9,0.2-1.9-0.3-2.8c-1.1-1.7-3.3-2.1-5.2-0.8
	c-1.9,1.3-2.4,3.5-1.2,5.2C22.1,53.8,23,54.2,24,54.2z M23.6,49c1.3-0.8,2.6-0.6,3.4,0.5c0.7,1.1,0.4,2.5-0.8,3.3
	c-1.3,0.8-2.6,0.6-3.4-0.5C22.1,51.2,22.4,49.8,23.6,49z"/>
<path class="st6" d="M18.8,68.9c-0.9-1.4-2.4-2.2-4-1.2l0.9,1.3c0.8-0.5,1.6-0.3,2.1,0.5c0.5,0.8,0.6,1.6,0,2
	c-1.4,1-2.9-4.1-5.6-2.3c-1.2,0.8-1.1,2.2-0.3,3.3c0.6,0.9,1.5,1.5,2.6,1.3l-1,0.7l0.8,1.2l4.4-2.9C20,71.8,19.7,70.2,18.8,68.9z
	 M15.9,72.8c-1.1,0.7-2.2,0.2-2.9-0.7c-0.4-0.6-0.5-1.3,0.1-1.6c1-0.7,2.1,1.4,3.3,2.1L15.9,72.8z"/>
<path class="st6" d="M14.6,65.4c0.2,0.2,0.3,0.5,0.3,0.7l1.4-0.9c0-0.1-0.1-0.3-0.2-0.4c-0.6-0.9-1.6-1.4-2.7-1.3l1.1-0.8l-0.8-1.2
	l-6.2,4.2l0.8,1.2l3.1-2.1C12.7,63.9,13.8,64.2,14.6,65.4z"/>
<path class="st6" d="M27.9,55.4c-1.9,1.3-2.4,3.5-1.2,5.2c1,1.4,2.4,2,3.9,1.6l-0.9-1.3c-0.7,0.1-1.4-0.1-1.9-0.9
	c-0.7-1-0.5-2.2,0.4-3l3.3,4.9c0.1-0.1,0.3-0.2,0.4-0.3c1.9-1.3,2.4-3.5,1.2-5.2C32,54.5,29.8,54.1,27.9,55.4z M31.7,60l-2.5-3.7
	c1.1-0.6,2.2-0.3,2.9,0.7C32.8,58,32.7,59.1,31.7,60z"/>
<path class="st6" d="M38,92.8c-0.5,0.3-0.6,0.9-0.3,1.4c0.3,0.5,0.9,0.6,1.4,0.3c0.5-0.3,0.6-0.9,0.3-1.4C39,92.6,38.4,92.5,38,92.8
	z"/>
<path class="st6" d="M41.3,43.9l-0.9-1.3c-0.7,0.1-1.4-0.1-1.9-0.9c-0.7-1-0.5-2.2,0.4-3l3.3,4.9c0.1-0.1,0.3-0.2,0.4-0.3
	c1.9-1.3,2.4-3.5,1.2-5.2c-1.2-1.8-3.4-2.2-5.3-0.9c-1.9,1.3-2.4,3.5-1.2,5.2C38.3,43.8,39.8,44.4,41.3,43.9z M42.7,38.7
	c0.7,1,0.5,2.1-0.4,3L39.8,38C41,37.5,42,37.7,42.7,38.7z"/>
<path class="st6" d="M33.3,70.4c0.2,0.4,0.6,0.7,0.8,0.9l1.1-0.7c-0.2-0.2-0.4-0.4-0.6-0.7c-0.5-0.7-0.4-1.3,0.4-1.8l3-2l1.2,1.8
	l1.1-0.7l-1.2-1.8L41,64l-0.8-1.2L38.3,64l-0.7-1l-1.1,0.7l0.7,1l-3.1,2.1C32.4,68,32.5,69.2,33.3,70.4z"/>
<rect x="29.5" y="96.5" transform="matrix(0.829 -0.5593 0.5593 0.829 -48.6856 35.2046)" class="st6" width="7.5" height="1.5"/>
<path class="st6" d="M44.7,82.9c-0.7,0.1-1.4-0.1-1.9-0.9c-0.7-1-0.5-2.2,0.4-3l3.3,4.9c0.1-0.1,0.3-0.2,0.4-0.3
	c1.9-1.3,2.4-3.5,1.2-5.2c-1.2-1.8-3.4-2.2-5.3-0.9c-1.9,1.3-2.4,3.5-1.2,5.2c1,1.4,2.4,2,3.9,1.6L44.7,82.9z M47,79
	c0.7,1,0.5,2.1-0.4,3l-2.5-3.7C45.2,77.8,46.3,78,47,79z"/>
<path class="st6" d="M36.1,98.5c-2.5,1.7,1.2,4.6-0.3,5.7c-0.6,0.4-1.1,0.1-1.7-0.6c-0.5-0.8-0.6-1.7,0.2-2.2l-0.9-1.3
	c-1.4,0.9-1.3,2.6-0.3,4.1c1,1.4,2.4,2,3.6,1.2c2.5-1.7-1.1-4.8,0.3-5.7c0.5-0.3,1.1-0.1,1.5,0.6c0.5,0.7,0.4,1.5-0.2,2l0.9,1.3
	c1.1-0.8,1.3-2.5,0.3-3.9C38.6,98.3,37.2,97.7,36.1,98.5z"/>
<path class="st6" d="M52.8,85.3c-0.9-1.4-2.4-2.2-4-1.2l0.9,1.3c0.8-0.5,1.6-0.3,2.1,0.5c0.5,0.8,0.6,1.6,0,2
	c-1.4,1-2.9-4.1-5.6-2.3c-1.2,0.8-1.1,2.2-0.3,3.3c0.6,0.9,1.5,1.5,2.6,1.3l-1,0.7l0.8,1.2l4.4-2.9C54,88.2,53.7,86.6,52.8,85.3z
	 M49.9,89.2c-1.1,0.7-2.2,0.2-2.9-0.7c-0.4-0.6-0.5-1.3,0.1-1.6c1-0.7,2.1,1.4,3.3,2.1L49.9,89.2z"/>
<path class="st6" d="M36.4,107.1c-0.5,0.3-0.6,0.9-0.3,1.4c0.3,0.5,0.9,0.6,1.4,0.3c0.5-0.3,0.6-0.9,0.3-1.4
	C37.5,106.9,36.9,106.8,36.4,107.1z"/>
<path class="st6" d="M52.2,95.8c-0.5-0.7-0.4-1.3,0.4-1.8l3-2l1.2,1.8l1.1-0.7l-1.2-1.8l1.8-1.2l-0.8-1.2L55.8,90l-0.7-1L54,89.7
	l0.7,1l-3.1,2.1c-1.7,1.1-1.6,2.3-0.8,3.5c0.2,0.4,0.6,0.7,0.8,0.9l1.1-0.7C52.6,96.3,52.4,96.1,52.2,95.8z"/>
<path class="st6" d="M25.9,87.4c-1.1,0.6-2.2,0.2-2.8-0.7c-0.7-1.1-0.4-2.4,0.8-3.3c1.3-0.8,2.6-0.6,3.3,0.4c0.6,0.9,0.6,2-0.3,2.8
	l0.9,1.3c1.5-1.2,1.6-3.2,0.5-4.8c-1.2-1.8-3.4-2.2-5.3-0.9c-1.8,1.2-2.3,3.2-1.4,4.9l-2.1,0.1l0.5,0.8c0.1,0,0.4,0.1,0.6,0.4
	c0.2,0.4,0.2,0.8-0.2,1c-0.3,0.2-0.7,0.1-1-0.2c-0.2-0.3-0.2-0.7,0-0.9L19,87.4c-0.6,0.4-0.7,1.2-0.1,2.1c0.6,0.8,1.5,1,2.1,0.5
	c0.7-0.4,0.9-1.3,0.4-2.1c0,0-0.1-0.1-0.1-0.1l0.8,0c1.2,1.4,3,1.8,4.6,0.9L25.9,87.4z"/>
<path class="st6" d="M21.6,79.4l-3.4,2.3l0.8,1.2l3.6-2.5c1.8-1.2,2-2.8,1.1-4.2c-0.6-0.8-1.4-1.2-2.4-1.1l1-0.7l-0.8-1.2l-6.2,4.2
	l0.8,1.2l3.4-2.3c1.2-0.8,2.2-0.7,2.9,0.3C23.1,77.6,22.9,78.6,21.6,79.4z"/>
<path class="st6" d="M33.1,90.1c-0.9-1.4-2.4-2.2-4-1.2l0.9,1.3c0.8-0.5,1.6-0.3,2.1,0.5c0.5,0.8,0.6,1.6,0,2
	c-1.4,1-2.9-4.1-5.6-2.3c-1.2,0.8-1.1,2.2-0.3,3.3c0.6,0.9,1.5,1.5,2.6,1.3l-1,0.7l0.8,1.2l4.4-2.9C34.3,93,34,91.4,33.1,90.1z
	 M30.3,94c-1.1,0.7-2.2,0.2-2.9-0.7c-0.4-0.6-0.5-1.3,0.1-1.6c1-0.7,2.1,1.4,3.3,2.1L30.3,94z"/>
</svg>
