<svg width="42" height="45" viewBox="0 0 42 45" fill="none" xmlns="http://www.w3.org/2000/svg">
<g clip-path="url(#clip0)">
<path d="M19.5703 9.69287H27.4431C34.6342 9.69287 36.3317 11.4671 36.3317 18.9246V27.0889C36.3317 34.5463 34.6208 36.3067 27.4297 36.3067H19.5569C12.3659 36.3067 10.6683 34.5325 10.6683 27.075V18.9107C10.6683 11.4671 12.3792 9.69287 19.5703 9.69287Z" fill="black"/>
<path d="M10 9H37V37H10V9Z" fill="black"/>
<path fill-rule="evenodd" clip-rule="evenodd" d="M31.6802 18.8554C31.8005 18.4395 31.6802 18.1484 31.1188 18.1484H29.2475C28.7664 18.1484 28.5525 18.4118 28.4322 18.7029C28.4322 18.7029 27.4832 21.1148 26.1332 22.6672C25.6921 23.1247 25.505 23.2633 25.2644 23.2633C25.1441 23.2633 24.9703 23.1247 24.9703 22.7088V18.8554C24.9703 18.3564 24.8366 18.1484 24.4357 18.1484H21.4951C21.201 18.1484 21.0139 18.3841 21.0139 18.592C21.0139 19.0633 21.6822 19.1742 21.7624 20.4771V23.3326C21.7624 23.9564 21.6555 24.0672 21.4149 24.0672C20.7866 24.0672 19.2362 21.6554 18.3272 18.8831C18.1401 18.3702 17.9663 18.1484 17.4852 18.1484H15.6139C15.0792 18.1484 14.9723 18.4118 14.9723 18.7029C14.9723 19.2158 15.6005 21.7663 17.9263 25.1346C19.4767 27.4356 21.6555 28.6831 23.6337 28.6831C24.8233 28.6831 24.9703 28.4059 24.9703 27.9346V26.188C24.9703 25.6336 25.0772 25.5227 25.4649 25.5227C25.7456 25.5227 26.2134 25.6613 27.3228 26.7702C28.5926 28.087 28.8064 28.6831 29.5149 28.6831H31.3862C31.9208 28.6831 32.1881 28.4059 32.0277 27.8653C31.854 27.3247 31.2525 26.5346 30.4505 25.592C30.0094 25.0514 29.3545 24.4831 29.1673 24.192C28.8866 23.8177 28.9668 23.6514 29.1673 23.3326C29.1673 23.3187 31.453 19.992 31.6802 18.8554Z" fill="white"/>
<path d="M34.1643 36.686C34.1643 36.4158 34.3384 35.7071 33.9081 35.8336C32.844 36.1462 31.9671 37.1805 31.2074 37.9591C30.6803 38.4992 30.166 39.0196 29.7449 39.6528C29.3604 40.231 30.3977 39.2305 30.5188 39.1215C32.034 37.757 33.5865 36.4933 35.2265 35.2911C36.3573 34.4621 37.5889 33.7669 38.6638 32.8612C38.8976 32.6642 38.7497 32.4611 38.477 32.5125C37.5587 32.6856 36.7941 33.6897 36.1819 34.3391C35.3397 35.2323 34.5502 36.2699 33.8974 37.317C33.6559 37.7045 32.9103 38.8388 33.2249 38.5126C33.6898 38.0305 34.1465 37.5601 34.6447 37.1067C35.3104 36.5006 36.3647 35.5522 37.2707 35.4018C37.8643 35.3033 37.2683 36.2204 37.1533 36.4258C37.103 36.5157 36.6878 37.3777 36.6676 37.2727C36.567 36.7509 37.6255 35.9536 38.0073 35.6897" stroke="white" stroke-width="4" stroke-linecap="round" stroke-linejoin="round"/>
</g>
<circle cx="23.5" cy="23.5" r="14" stroke="white" stroke-width="5"/>
<path d="M8.1127 13.4828C10.4298 12.6755 12.3513 10.9941 14.0736 9.35408C14.3028 9.1358 13.5306 9.69239 13.2723 9.87896C10.9655 11.5454 8.36591 12.9034 5.96474 14.4459C4.98463 15.0756 4.02391 15.7318 3.04398 16.3615C2.89848 16.455 2.26627 17 2.0666 17C1.81118 17 2.36244 16.6034 2.50983 16.4048C3.10467 15.603 3.73843 14.8279 4.36798 14.0509C7.42492 10.2783 10.6426 6.47482 14.5111 3.41808C15.1302 2.92887 15.8066 2.4108 16.5568 2.10859C16.6047 2.08929 17 1.90862 17 2.05988C17 2.62345 16.2549 3.03588 15.8522 3.3315C13.9512 4.72684 12.1635 6.44068 10.6811 8.23398C10.0507 8.99666 9.43165 9.85076 8.95369 10.7123C8.82644 10.9416 8.60488 11.4462 9.15258 11.1668C11.1034 10.1716 12.6297 8.47578 14.5338 7.41149C14.8451 7.2375 14.7966 7.28467 14.4486 7.40066C14.18 7.49019 13.9029 7.55404 13.636 7.63875" stroke="white" stroke-width="4" stroke-linecap="round" stroke-linejoin="round"/>
<path d="M32.7322 8.85329C33.9769 8.97555 34.9369 9.86194 35.8668 10.585C36.4101 11.0074 37.0472 11.4173 37.5538 11.8729C37.7615 12.0598 36.8642 11.9119 36.7901 11.8837C35.2196 11.2872 33.7639 10.2024 32.453 9.21045C31.9768 8.85018 30.8495 7.58312 31.0168 8.13897C31.0685 8.311 31.5284 8.59473 31.6437 8.69636C32.491 9.44341 33.3275 10.1986 34.1342 10.9854C35.6838 12.4967 37.247 14.0911 39.0128 15.3795C39.3061 15.5936 40.2283 16.1764 39.9474 15.9478C37.8753 14.2613 36.4594 11.8708 35.314 9.56761C35.2763 9.49185 34.6306 8.35308 34.9093 8.38249C35.2515 8.41859 35.6325 8.68641 35.9181 8.83705C36.7352 9.26809 37.5441 9.71155 38.3744 10.1196C38.7779 10.3178 40.0134 10.7835 39.5599 10.7581C39.0135 10.7276 38.2582 10.2352 37.8216 9.96806C37.6038 9.83476 36.5507 9.20659 36.5507 8.92364C36.5507 8.78586 36.7674 9.10984 36.8528 9.22127C37.3455 9.8646 37.8021 10.5327 38.2719 11.1911" stroke="white" stroke-width="4" stroke-linecap="round" stroke-linejoin="round"/>
<path d="M8.15702 36.4205C9.85871 36.4757 11.3907 37.2234 12.9528 37.7983C13.1878 37.8848 13.5733 38.0884 13.8351 38.0884C13.9217 38.0884 13.6974 37.9874 13.624 37.9434C13.2477 37.7177 12.8672 37.4984 12.4927 37.27C10.0626 35.7881 7.94785 33.7751 5.85656 31.8882C5.77058 31.8106 4.91597 31.2009 5.00674 31.0024C5.03031 30.9508 6.01646 31.7466 6.04601 31.769C9.04049 34.0436 18.5022 40.25 15.4915 37.9952C14.1726 37.0074 12.8441 36.0568 11.5617 35.0168C10.4447 34.1109 9.19731 33.2128 8.27611 32.1109C8.0256 31.8112 8.88906 32.6084 9.16382 32.8879C11.0573 34.8141 13.1646 36.5529 15.21 38.3267C15.4928 38.5719 16.4685 39.0311 16.0869 39.0311C15.8975 39.0311 15.7121 38.8613 15.5618 38.7722C14.8038 38.3226 14.0563 37.8716 13.3534 37.3425C12.1973 36.4723 11.1404 35.4908 10.0732 34.5247C9.76917 34.2495 9.31851 33.9777 9.07721 33.6441C8.98181 33.5123 9.55006 33.8749 9.55354 33.8772C10.7222 34.6651 11.9275 35.4062 13.126 36.1512C16.6992 38.3721 20.3723 40.4979 24.0654 42.5327C24.2835 42.6529 24.6861 42.9739 24.9477 42.9989C25.1744 43.0206 24.601 42.716 24.4281 42.5742" stroke="white" stroke-width="4" stroke-linecap="round" stroke-linejoin="round"/>
<defs>
<clipPath id="clip0">
<rect width="27" height="28" fill="white" transform="translate(10 9)"/>
</clipPath>
</defs>
</svg>
