<svg width="88" height="19" viewBox="0 0 88 19" fill="none" xmlns="http://www.w3.org/2000/svg">
<path d="M0.675781 18V6H11.1172V18H8.23438V8.63672H3.55859V18H0.675781ZM34.6602 0H37.2969C37.2969 1.16406 36.9531 2.07422 36.2656 2.73047C35.5859 3.38672 34.6328 3.71484 33.4062 3.71484C32.1953 3.71484 31.2461 3.38672 30.5586 2.73047C29.8789 2.07422 29.5391 1.16406 29.5391 0H32.1875C32.1875 0.445312 32.3008 0.777344 32.5273 0.996094C32.7617 1.21484 33.0547 1.32422 33.4062 1.32422C33.7891 1.32422 34.0938 1.21484 34.3203 0.996094C34.5469 0.777344 34.6602 0.445312 34.6602 0ZM31.3906 6V14.0391L34.8945 6H39.7227V18H35.9492V9.89062L32.4453 18H27.5938V6H31.3906ZM47.3164 12.4102H45.418V11.3086H47.3164C48.2305 11.3086 48.9453 11.1289 49.4609 10.7695C49.9844 10.4102 50.2461 9.85938 50.2461 9.11719C50.2461 8.4375 49.9648 7.90625 49.4023 7.52344C48.8398 7.13281 48.0625 6.9375 47.0703 6.9375C46.0391 6.9375 45.2031 7.18359 44.5625 7.67578C43.9297 8.16016 43.6133 8.80078 43.6133 9.59766H42.1719C42.1719 8.50391 42.6172 7.59375 43.5078 6.86719C44.4062 6.13281 45.5938 5.76562 47.0703 5.76562C48.4766 5.76562 49.5859 6.06641 50.3984 6.66797C51.2188 7.26172 51.6289 8.04688 51.6289 9.02344C51.6289 9.75781 51.4375 10.3672 51.0547 10.8516C50.6719 11.3281 50.1289 11.6641 49.4258 11.8594C51.1055 12.3047 51.9453 13.2734 51.9453 14.7656C51.9453 15.875 51.5195 16.7305 50.668 17.332C49.8164 17.9336 48.625 18.2344 47.0938 18.2344C45.5078 18.2344 44.2461 17.875 43.3086 17.1562C42.3789 16.4375 41.9141 15.4297 41.9141 14.1328H43.3555C43.3555 15.0703 43.6914 15.7969 44.3633 16.3125C45.0352 16.8281 45.9453 17.0859 47.0938 17.0859C48.2109 17.0859 49.0625 16.8789 49.6484 16.4648C50.2344 16.0508 50.5273 15.4648 50.5273 14.707C50.5273 13.9414 50.2266 13.3672 49.625 12.9844C49.0234 12.6016 48.2539 12.4102 47.3164 12.4102ZM76.4258 18V11.707L71.75 18H68.1406L73.3086 11.4258L68.457 6H72.2539L76.4258 11.2031V6H79.3086V11.2031L83.4805 6H87.125L82.4258 11.4258L87.4648 18H83.9844L79.3086 11.707V18H76.4258Z" fill="black"/>
<path d="M25.3807 11.136C25.3807 7.92 23.3647 5.76 20.1247 5.76C16.1887 5.76 13.8127 9.12 13.8127 12.864C13.8127 16.08 15.8527 18.24 19.1167 18.24C21.8287 18.24 23.8687 16.632 24.7327 14.4H23.0767C22.3807 15.912 20.9407 16.92 19.1167 16.92C16.8127 16.92 15.3007 15.312 15.3007 12.84C15.3007 12.72 15.3007 12.6 15.3007 12.504H25.2847C25.3567 12.048 25.3807 11.592 25.3807 11.136ZM20.1247 7.08C22.3807 7.08 23.8927 8.64 23.8927 11.16C23.8927 11.256 23.8927 11.352 23.8927 11.448H15.4207C15.8767 9 17.5807 7.08 20.1247 7.08ZM61.6606 18H65.6686L68.2126 6H63.5326L63.1726 7.68C62.4766 6.432 61.2526 5.76 59.7166 5.76C55.9726 5.76 53.6206 9.096 53.6206 13.032C53.6206 16.152 55.4926 18.24 58.2766 18.24C59.8126 18.24 61.0846 17.496 62.0206 16.344L61.6606 18ZM62.2846 11.52C62.2846 12.984 61.3486 14.256 59.8846 14.256C58.8046 14.256 58.1566 13.56 58.1566 12.456C58.1566 11.016 59.0926 9.744 60.5326 9.744C61.6126 9.744 62.2846 10.44 62.2846 11.52Z" fill="#AD3D27"/>
</svg>
