<svg width="263" height="24" viewBox="0 0 263 24" fill="none" xmlns="http://www.w3.org/2000/svg">
<path d="M9.75781 21.2344V18H0.195312V6H4.28516V14.9062H7.63672V6H11.7148V14.9062H13.2852V21.2344H9.75781ZM57.6892 18.24C56.7132 18.24 55.8412 18.04 55.0732 17.64C54.3212 17.224 53.7292 16.64 53.2972 15.888C52.8812 15.136 52.6732 14.24 52.6732 13.2C52.6732 12.048 52.8172 10.96 53.1052 9.936C53.3932 8.896 53.8252 7.984 54.4012 7.2C54.9772 6.4 55.6972 5.776 56.5612 5.328C57.4412 4.88 58.4652 4.656 59.6332 4.656C61.1532 4.656 62.3612 5.112 63.2572 6.024C64.1532 6.936 64.6012 8.208 64.6012 9.84C64.6012 10.944 64.4652 12 64.1932 13.008C63.9212 14.016 63.4972 14.912 62.9212 15.696C62.3612 16.48 61.6412 17.104 60.7612 17.568C59.8972 18.016 58.8732 18.24 57.6892 18.24ZM57.9772 15.36C58.6332 15.36 59.1852 15.096 59.6332 14.568C60.0972 14.04 60.4492 13.36 60.6892 12.528C60.9292 11.68 61.0492 10.784 61.0492 9.84C61.0492 9.184 60.9212 8.64 60.6652 8.208C60.4252 7.76 59.9932 7.536 59.3692 7.536C58.8412 7.536 58.3772 7.72 57.9772 8.088C57.5772 8.44 57.2492 8.904 56.9932 9.48C56.7372 10.056 56.5452 10.672 56.4172 11.328C56.2892 11.984 56.2252 12.608 56.2252 13.2C56.2252 14.64 56.8092 15.36 57.9772 15.36ZM140.094 18V13.0312H134.328V18H131.938V6H134.328V10.8516H140.094V6H142.496V18H140.094ZM197.224 18.24C201.064 18.24 203.416 14.88 203.416 11.136C203.416 7.92 201.424 5.76 198.304 5.76C196.336 5.76 194.8 6.816 193.792 8.4C194.008 7.368 194.272 6 194.272 6H192.88L189.064 24H190.624L192.616 14.64C193.12 16.824 194.872 18.24 197.224 18.24ZM193.168 12.84C193.168 9.888 194.992 7.08 198.064 7.08C200.392 7.08 201.928 8.688 201.928 11.16C201.928 14.112 200.08 16.92 197.032 16.92C194.728 16.92 193.168 15.312 193.168 12.84ZM251.34 9.09375V6H262.133V9.09375H258.781V18H254.691V9.09375H251.34Z" fill="#AD3D27"/>
<path d="M15.4766 18V6H21.418C22.5586 6 23.4648 6.26562 24.1367 6.79688C24.8086 7.32812 25.1445 8.10156 25.1445 9.11719C25.1445 10.3359 24.5938 11.1758 23.4922 11.6367C24.1719 11.8633 24.6992 12.2227 25.0742 12.7148C25.457 13.1992 25.6484 13.8086 25.6484 14.543C25.6484 15.6758 25.293 16.5352 24.582 17.1211C23.8789 17.707 22.8906 18 21.6172 18H15.4766ZM20.7266 7.82812H17.7734V10.9453H20.7266C22.1328 10.9453 22.8359 10.4258 22.8359 9.38672C22.8359 8.84766 22.668 8.45312 22.332 8.20312C22.0039 7.95312 21.4688 7.82812 20.7266 7.82812ZM21.207 12.7734H17.7734V16.1719H21.207C21.8789 16.1719 22.3867 16.0273 22.7305 15.7383C23.0742 15.4492 23.2461 15.0273 23.2461 14.4727C23.2461 13.918 23.0742 13.4961 22.7305 13.207C22.3867 12.918 21.8789 12.7734 21.207 12.7734ZM39.5124 11.184C39.5124 7.944 37.4724 5.76 34.3044 5.76C30.3684 5.76 28.0884 9.12 28.0884 12.816C28.0884 16.056 30.1524 18.24 33.3444 18.24C36.0324 18.24 38.0004 16.632 38.8644 14.4H37.8084C37.0644 16.152 35.4564 17.376 33.3444 17.376C30.7764 17.376 29.0244 15.576 29.0244 12.792C29.0244 12.648 29.0244 12.504 29.0244 12.36H39.4164C39.4644 11.976 39.5124 11.568 39.5124 11.184ZM34.3044 6.624C36.8244 6.624 38.5524 8.4 38.5524 11.208C38.5524 11.352 38.5524 11.472 38.5284 11.616H29.1204C29.5284 8.88 31.3764 6.624 34.3044 6.624ZM41.0117 8.20312V6H51.1836V8.20312H47.293V18H44.9023V8.20312H41.0117ZM72.207 12.2344C72.5664 12.2344 72.9336 12.2109 73.3086 12.1641C73.6914 12.1094 73.9961 12.0547 74.2227 12C74.457 11.9375 74.668 11.8789 74.8555 11.8242C75.0508 11.7617 75.1523 11.7305 75.1602 11.7305V6H76.6016V18H75.1602V13.0312C73.9883 13.3828 72.9727 13.5586 72.1133 13.5586C68.7852 13.5586 67.1211 11.9414 67.1211 8.70703V6H68.5625V8.61328C68.5625 11.0273 69.7773 12.2344 72.207 12.2344ZM87.3828 18V13.5352H83.7852V18H79.6953V6H83.7852V10.4648H87.3828V6H91.4609V18H87.3828ZM104.105 13.9688C104.105 15.1875 103.707 16.1641 102.91 16.8984C102.121 17.6328 100.992 18 99.5234 18H94.4375V6H96.8281V9.96094H99.5C100.93 9.96094 102.055 10.3281 102.875 11.0625C103.695 11.7891 104.105 12.7578 104.105 13.9688ZM108.324 18H105.934V6H108.324V18ZM99.3008 11.9766H96.8281V15.9844H99.3008C100.902 15.9844 101.703 15.3047 101.703 13.9453C101.703 12.6328 100.902 11.9766 99.3008 11.9766ZM118.355 0H120.992C120.992 1.16406 120.648 2.07422 119.961 2.73047C119.281 3.38672 118.328 3.71484 117.102 3.71484C115.891 3.71484 114.941 3.38672 114.254 2.73047C113.574 2.07422 113.234 1.16406 113.234 0H115.883C115.883 0.445312 115.996 0.777344 116.223 0.996094C116.457 1.21484 116.75 1.32422 117.102 1.32422C117.484 1.32422 117.789 1.21484 118.016 0.996094C118.242 0.777344 118.355 0.445312 118.355 0ZM115.086 6V14.0391L118.59 6H123.418V18H119.645V9.89062L116.141 18H111.289V6H115.086ZM154.298 18H155.81L158.354 6H156.794L156.074 9.408C155.594 7.176 153.866 5.76 151.466 5.76C147.65 5.76 145.274 9.12 145.274 12.864C145.274 16.08 147.266 18.24 150.386 18.24C152.282 18.24 153.77 17.28 154.778 15.792C154.562 16.848 154.298 18 154.298 18ZM155.546 11.16C155.546 14.112 153.722 16.92 150.65 16.92C148.322 16.92 146.762 15.312 146.762 12.84C146.762 9.888 148.61 7.08 151.658 7.08C153.986 7.08 155.546 8.688 155.546 11.16ZM159.395 9.09375V6H170.188V9.09375H166.836V18H162.746V9.09375H159.395ZM187.051 7.52344C188.199 8.6875 188.773 10.1797 188.773 12C188.773 13.8203 188.199 15.3164 187.051 16.4883C185.91 17.6523 184.469 18.2344 182.727 18.2344C181.164 18.2344 179.832 17.7578 178.73 16.8047C177.629 15.8438 176.969 14.5859 176.75 13.0312H174.734V18H172.344V6H174.734V10.8516H176.773C177.016 9.32812 177.684 8.10156 178.777 7.17188C179.871 6.23438 181.188 5.76562 182.727 5.76562C184.469 5.76562 185.91 6.35156 187.051 7.52344ZM180.113 14.918C180.801 15.6602 181.672 16.0312 182.727 16.0312C183.781 16.0312 184.652 15.6602 185.34 14.918C186.035 14.168 186.383 13.1953 186.383 12C186.383 10.8047 186.035 9.83594 185.34 9.09375C184.652 8.34375 183.781 7.96875 182.727 7.96875C181.672 7.96875 180.801 8.34375 180.113 9.09375C179.426 9.83594 179.082 10.8047 179.082 12C179.082 13.1953 179.426 14.168 180.113 14.918ZM217.73 18V8.0625L214.848 18H211.625L208.754 8.13281V18H206.105V6H210.98L213.406 15.1641L215.809 6H220.602V18H217.73ZM229.249 18.24C233.041 18.24 235.849 15.768 235.849 12C235.849 8.232 233.041 5.76 229.249 5.76C225.457 5.76 222.649 8.232 222.649 12C222.649 15.768 225.457 18.24 229.249 18.24ZM229.249 13.776C228.241 13.776 227.569 13.056 227.569 12C227.569 10.944 228.241 10.224 229.249 10.224C230.281 10.224 230.929 10.944 230.929 12C230.929 13.056 230.281 13.776 229.249 13.776ZM244.371 18.24C247.659 18.24 250.131 15.672 250.131 12C250.131 8.328 247.659 5.76 244.371 5.76C242.931 5.76 241.683 6.408 240.771 7.512V6H237.891V24H240.771V16.488C241.683 17.592 242.931 18.24 244.371 18.24ZM244.011 15.6C242.163 15.6 240.771 14.16 240.771 12C240.771 9.84 242.163 8.4 244.011 8.4C245.859 8.4 247.251 9.84 247.251 12C247.251 14.16 245.859 15.6 244.011 15.6Z" fill="black"/>
</svg>
